<svg height="512pt" viewBox="0 0 512 512" width="512pt" xmlns="http://www.w3.org/2000/svg"><path d="m256 0c-141.382812 0-256 114.617188-256 256 0 52.03125 15.5625 100.414062 42.230469 140.816406l-42.230469 115.183594 119.128906-39.707031c39.589844 25.105469 86.507813 39.707031 136.871094 39.707031 141.382812 0 256-114.617188 256-256s-114.617188-256-256-256zm0 0" fill="#25ae88"/><g fill="#1a9172"><path d="m476.691406 264.828125c-4.875 0-8.828125-3.957031-8.828125-8.828125 0-48.011719-18.089843-96.175781-50.917969-135.589844-3.125-3.746094-2.613281-9.316406 1.128907-12.441406 3.753906-3.113281 9.3125-2.613281 12.429687 1.132812 35.476563 42.589844 55.011719 94.761719 55.011719 146.898438 0 4.871094-3.953125 8.828125-8.824219 8.828125zm0 0"/><path d="m397.242188 97.101562c-2.003907 0-4.015626-.679687-5.667969-2.0625-14.988281-12.582031-28.804688-22.273437-42.222657-29.644531-4.273437-2.347656-5.835937-7.714843-3.496093-11.980469 2.339843-4.261718 7.707031-5.84375 11.988281-3.492187 14.449219 7.925781 29.191406 18.261719 45.082031 31.59375 3.734375 3.132813 4.21875 8.703125 1.085938 12.4375-1.757813 2.074219-4.253907 3.148437-6.769531 3.148437zm0 0"/><path d="m317.792969 52.964844c-.917969 0-1.84375-.148438-2.773438-.449219-20.945312-6.914063-38.75-8.351563-59.039062-8.386719-4.871094-.007812-8.824219-3.964844-8.816407-8.835937.015626-4.863281 3.964844-8.808594 8.835938-8.808594h.007812c26.015626.035156 44.710938 2.726563 64.546876 9.265625 4.628906 1.527344 7.144531 6.523438 5.617187 11.152344-1.21875 3.714844-4.671875 6.0625-8.378906 6.0625zm0 0"/></g><path d="m397.242188 194.410156v-.40625c0-14.511718-11.769532-26.28125-26.28125-26.28125h-14.546876l1.828126-14.597656c1.957031-15.6875-10.277344-29.539062-26.078126-29.539062-13.25 0-24.433593 9.871093-26.078124 23.023437l-2.636719 21.113281h-70.621094l1.828125-14.597656c1.957031-15.6875-10.277344-29.539062-26.078125-29.539062-13.25 0-24.433594 9.871093-26.078125 23.023437l-2.636719 21.113281h-38.824219c-14.511718 0-26.28125 11.769532-26.28125 26.28125v.40625c0 14.511719 11.769532 26.28125 26.28125 26.28125h32.203126l-11.035157 88.273438h-21.167969c-14.511718 0-26.28125 11.769531-26.28125 26.28125v.40625c0 14.511718 11.769532 26.277344 26.28125 26.277344h14.546876l-1.828126 14.601562c-1.957031 15.6875 10.277344 29.539062 26.078126 29.539062 13.25 0 24.433593-9.871093 26.078124-23.023437l2.636719-21.117187h70.621094l-1.828125 14.601562c-1.957031 15.6875 10.277344 29.539062 26.078125 29.539062 13.25 0 24.433594-9.871093 26.078125-23.023437l2.636719-21.117187h38.824219c14.511718 0 26.28125-11.765626 26.28125-26.277344v-.40625c0-14.511719-11.769532-26.28125-26.28125-26.28125h-32.203126l11.035157-88.273438h21.167969c14.511718 0 26.28125-11.769531 26.28125-26.28125zm-111.449219 114.554688h-70.621094l11.035156-88.273438h70.621094zm0 0" fill="#fff"/></svg>